<svg width="128" height="49" viewBox="0 0 128 49" fill="none" xmlns="http://www.w3.org/2000/svg">
<path d="M19.946 26.606H14.942L14.114 29H11.468L15.986 16.418H18.92L23.438 29H20.774L19.946 26.606ZM19.262 24.59L17.444 19.334L15.626 24.59H19.262ZM26.4048 17.84C25.9608 17.84 25.5888 17.702 25.2888 17.426C25.0008 17.138 24.8568 16.784 24.8568 16.364C24.8568 15.944 25.0008 15.596 25.2888 15.32C25.5888 15.032 25.9608 14.888 26.4048 14.888C26.8488 14.888 27.2148 15.032 27.5028 15.32C27.8028 15.596 27.9528 15.944 27.9528 16.364C27.9528 16.784 27.8028 17.138 27.5028 17.426C27.2148 17.702 26.8488 17.84 26.4048 17.84ZM27.6468 19.028V29H25.1268V19.028H27.6468ZM32.6565 20.576C32.9805 20.048 33.4005 19.634 33.9165 19.334C34.4445 19.034 35.0445 18.884 35.7165 18.884V21.53H35.0505C34.2585 21.53 33.6585 21.716 33.2505 22.088C32.8545 22.46 32.6565 23.108 32.6565 24.032V29H30.1365V19.028H32.6565V20.576ZM39.9339 15.68V29H37.4139V15.68H39.9339ZM43.7016 17.84C43.2576 17.84 42.8856 17.702 42.5856 17.426C42.2976 17.138 42.1536 16.784 42.1536 16.364C42.1536 15.944 42.2976 15.596 42.5856 15.32C42.8856 15.032 43.2576 14.888 43.7016 14.888C44.1456 14.888 44.5116 15.032 44.7996 15.32C45.0996 15.596 45.2496 15.944 45.2496 16.364C45.2496 16.784 45.0996 17.138 44.7996 17.426C44.5116 17.702 44.1456 17.84 43.7016 17.84ZM44.9436 19.028V29H42.4236V19.028H44.9436ZM52.9594 18.884C54.1474 18.884 55.1074 19.262 55.8394 20.018C56.5714 20.762 56.9374 21.806 56.9374 23.15V29H54.4174V23.492C54.4174 22.7 54.2194 22.094 53.8234 21.674C53.4274 21.242 52.8874 21.026 52.2034 21.026C51.5074 21.026 50.9554 21.242 50.5474 21.674C50.1514 22.094 49.9534 22.7 49.9534 23.492V29H47.4334V19.028H49.9534V20.27C50.2894 19.838 50.7154 19.502 51.2314 19.262C51.7594 19.01 52.3354 18.884 52.9594 18.884ZM68.6038 23.798C68.6038 24.158 68.5798 24.482 68.5318 24.77H61.2418C61.3018 25.49 61.5538 26.054 61.9978 26.462C62.4418 26.87 62.9878 27.074 63.6358 27.074C64.5718 27.074 65.2378 26.672 65.6338 25.868H68.3518C68.0638 26.828 67.5118 27.62 66.6958 28.244C65.8798 28.856 64.8778 29.162 63.6898 29.162C62.7298 29.162 61.8658 28.952 61.0978 28.532C60.3418 28.1 59.7478 27.494 59.3158 26.714C58.8958 25.934 58.6858 25.034 58.6858 24.014C58.6858 22.982 58.8958 22.076 59.3158 21.296C59.7358 20.516 60.3238 19.916 61.0798 19.496C61.8358 19.076 62.7058 18.866 63.6898 18.866C64.6378 18.866 65.4838 19.07 66.2278 19.478C66.9838 19.886 67.5658 20.468 67.9738 21.224C68.3938 21.968 68.6038 22.826 68.6038 23.798ZM65.9938 23.078C65.9818 22.43 65.7478 21.914 65.2918 21.53C64.8358 21.134 64.2778 20.936 63.6178 20.936C62.9938 20.936 62.4658 21.128 62.0338 21.512C61.6138 21.884 61.3558 22.406 61.2598 23.078H65.9938ZM83.8942 20.324C83.8942 20.996 83.7322 21.626 83.4082 22.214C83.0962 22.802 82.5982 23.276 81.9142 23.636C81.2422 23.996 80.3902 24.176 79.3582 24.176H77.2522V29H74.7322V16.436H79.3582C80.3302 16.436 81.1582 16.604 81.8422 16.94C82.5262 17.276 83.0362 17.738 83.3722 18.326C83.7202 18.914 83.8942 19.58 83.8942 20.324ZM79.2502 22.142C79.9462 22.142 80.4622 21.986 80.7982 21.674C81.1342 21.35 81.3022 20.9 81.3022 20.324C81.3022 19.1 80.6182 18.488 79.2502 18.488H77.2522V22.142H79.2502ZM90.1114 29.162C89.1514 29.162 88.2874 28.952 87.5194 28.532C86.7514 28.1 86.1454 27.494 85.7014 26.714C85.2694 25.934 85.0534 25.034 85.0534 24.014C85.0534 22.994 85.2754 22.094 85.7194 21.314C86.1754 20.534 86.7934 19.934 87.5734 19.514C88.3534 19.082 89.2234 18.866 90.1834 18.866C91.1434 18.866 92.0134 19.082 92.7934 19.514C93.5734 19.934 94.1854 20.534 94.6294 21.314C95.0854 22.094 95.3134 22.994 95.3134 24.014C95.3134 25.034 95.0794 25.934 94.6114 26.714C94.1554 27.494 93.5314 28.1 92.7394 28.532C91.9594 28.952 91.0834 29.162 90.1114 29.162ZM90.1114 26.966C90.5674 26.966 90.9934 26.858 91.3894 26.642C91.7974 26.414 92.1214 26.078 92.3614 25.634C92.6014 25.19 92.7214 24.65 92.7214 24.014C92.7214 23.066 92.4694 22.34 91.9654 21.836C91.4734 21.32 90.8674 21.062 90.1474 21.062C89.4274 21.062 88.8214 21.32 88.3294 21.836C87.8494 22.34 87.6094 23.066 87.6094 24.014C87.6094 24.962 87.8434 25.694 88.3114 26.21C88.7914 26.714 89.3914 26.966 90.1114 26.966ZM99.6819 20.576C100.006 20.048 100.426 19.634 100.942 19.334C101.47 19.034 102.07 18.884 102.742 18.884V21.53H102.076C101.284 21.53 100.684 21.716 100.276 22.088C99.8799 22.46 99.6819 23.108 99.6819 24.032V29H97.1619V19.028H99.6819V20.576ZM107.373 21.098V25.922C107.373 26.258 107.451 26.504 107.607 26.66C107.775 26.804 108.051 26.876 108.435 26.876H109.605V29H108.021C105.897 29 104.835 27.968 104.835 25.904V21.098H103.647V19.028H104.835V16.562H107.373V19.028H109.605V21.098H107.373ZM110.77 23.978C110.77 22.97 110.968 22.076 111.364 21.296C111.772 20.516 112.318 19.916 113.002 19.496C113.698 19.076 114.472 18.866 115.324 18.866C116.068 18.866 116.716 19.016 117.268 19.316C117.832 19.616 118.282 19.994 118.618 20.45V19.028H121.156V29H118.618V27.542C118.294 28.01 117.844 28.4 117.268 28.712C116.704 29.012 116.05 29.162 115.306 29.162C114.466 29.162 113.698 28.946 113.002 28.514C112.318 28.082 111.772 27.476 111.364 26.696C110.968 25.904 110.77 24.998 110.77 23.978ZM118.618 24.014C118.618 23.402 118.498 22.88 118.258 22.448C118.018 22.004 117.694 21.668 117.286 21.44C116.878 21.2 116.44 21.08 115.972 21.08C115.504 21.08 115.072 21.194 114.676 21.422C114.28 21.65 113.956 21.986 113.704 22.43C113.464 22.862 113.344 23.378 113.344 23.978C113.344 24.578 113.464 25.106 113.704 25.562C113.956 26.006 114.28 26.348 114.676 26.588C115.084 26.828 115.516 26.948 115.972 26.948C116.44 26.948 116.878 26.834 117.286 26.606C117.694 26.366 118.018 26.03 118.258 25.598C118.498 25.154 118.618 24.626 118.618 24.014ZM126.137 15.68V29H123.617V15.68H126.137Z" fill="black"/>
<path fill-rule="evenodd" clip-rule="evenodd" d="M6 2H44.5619C46.32 2 47.8721 3.14801 48.3867 4.82914L51.1941 14H53.2857L50.2991 4.24371C49.5271 1.72201 47.1991 0 44.5619 0H6C2.68629 0 0 2.68629 0 6V43C0 46.3137 2.68629 49 6 49H55.8884C59.9217 49 62.8062 45.1003 61.6256 41.2437L59.102 33H57.0104L59.7132 41.8291C60.5003 44.4002 58.5772 47 55.8884 47H6C3.79086 47 2 45.2091 2 43V6C2 3.79086 3.79086 2 6 2Z" fill="#FF6A28"/>
</svg>
